<?xml version="1.0" encoding="UTF-8"?>
<!DOCTYPE svg PUBLIC "-//W3C//DTD SVG 1.1//EN" "http://www.w3.org/Graphics/SVG/1.1/DTD/svg11.dtd">
<svg xmlns="http://www.w3.org/2000/svg" version="1.1" width="48px" height="48px" style="shape-rendering:geometricPrecision; text-rendering:geometricPrecision; image-rendering:optimizeQuality; fill-rule:evenodd; clip-rule:evenodd" xmlns:xlink="http://www.w3.org/1999/xlink">
<g><path style="opacity:0.772" fill="#3f3f3f" d="M 21.5,5.5 C 22.8333,5.5 24.1667,5.5 25.5,5.5C 25.3398,7.19919 25.5065,8.86586 26,10.5C 27.0113,9.66337 28.1779,9.33003 29.5,9.5C 28.0216,18.1558 24.1883,19.4891 18,13.5C 17.51,12.2068 17.3433,10.8734 17.5,9.5C 18.8221,9.33003 19.9887,9.66337 21,10.5C 21.4935,8.86586 21.6602,7.19919 21.5,5.5 Z"/></g>
<g><path style="opacity:0.687" fill="#3f3f3f" d="M 21.5,20.5 C 22.8333,20.5 24.1667,20.5 25.5,20.5C 25.5,22.5 25.5,24.5 25.5,26.5C 24.1667,26.5 22.8333,26.5 21.5,26.5C 21.5,24.5 21.5,22.5 21.5,20.5 Z"/></g>
<g><path style="opacity:0.687" fill="#343434" d="M 8.5,25.5 C 12.8333,25.1667 14.8333,27.1667 14.5,31.5C 10.1667,31.8333 8.16667,29.8333 8.5,25.5 Z"/></g>
<g><path style="opacity:0.687" fill="#343434" d="M 34.5,25.5 C 35.8333,25.5 37.1667,25.5 38.5,25.5C 38.8333,29.8333 36.8333,31.8333 32.5,31.5C 32.2525,29.1417 32.9192,27.1417 34.5,25.5 Z"/></g>
<g><path style="opacity:0.786" fill="#3f3f3f" d="M 18.5,29.5 C 28.79,27.2832 34.1233,31.2832 34.5,41.5C 33.1779,41.67 32.0113,41.3366 31,40.5C 29.1344,33.6531 24.9677,31.8197 18.5,35C 17.283,36.6477 16.4497,38.481 16,40.5C 14.9887,41.3366 13.8221,41.67 12.5,41.5C 11.8709,36.0911 13.8709,32.0911 18.5,29.5 Z"/></g>
<g><path style="opacity:0.882" fill="#3c3c3c" d="M 3.5,38.5 C 5.5,38.5 7.5,38.5 9.5,38.5C 9.5,39.5 9.5,40.5 9.5,41.5C 7.4727,41.6621 5.4727,41.4955 3.5,41C 2.40191,40.2303 2.40191,39.397 3.5,38.5 Z"/></g>
<g><path style="opacity:0.882" fill="#3c3c3c" d="M 37.5,38.5 C 39.5,38.5 41.5,38.5 43.5,38.5C 43.5,39.5 43.5,40.5 43.5,41.5C 41.4727,41.6621 39.4727,41.4955 37.5,41C 36.4019,40.2303 36.4019,39.397 37.5,38.5 Z"/></g>
</svg>
