<?xml version="1.0" encoding="UTF-8"?>
<!DOCTYPE svg PUBLIC "-//W3C//DTD SVG 1.1//EN" "http://www.w3.org/Graphics/SVG/1.1/DTD/svg11.dtd">
<svg xmlns="http://www.w3.org/2000/svg" version="1.1" width="48px" height="48px" style="shape-rendering:geometricPrecision; text-rendering:geometricPrecision; image-rendering:optimizeQuality; fill-rule:evenodd; clip-rule:evenodd" xmlns:xlink="http://www.w3.org/1999/xlink">
<g><path style="opacity:0.962" fill="#3f3f3f" d="M 24.5,33.5 C 25.1667,33.5 25.5,33.8333 25.5,34.5C 23.5,34.5 21.5,34.5 19.5,34.5C 19.5,36.1667 19.5,37.8333 19.5,39.5C 21.9496,39.298 24.283,39.6314 26.5,40.5C 24.4294,41.8086 21.9294,42.4752 19,42.5C 16.5,42.3333 14,42.1667 11.5,42C 10.1667,41.3333 10.1667,40.6667 11.5,40C 13.1341,39.5065 14.8008,39.3398 16.5,39.5C 16.5,37.8333 16.5,36.1667 16.5,34.5C 12.2325,34.797 8.06588,34.4637 4,33.5C 3.18243,23.9223 3.34909,14.4223 4.5,5C 17.1667,4.33333 29.8333,4.33333 42.5,5C 43.4601,8.72998 43.7935,12.5633 43.5,16.5C 42.5,16.5 41.5,16.5 40.5,16.5C 40.9804,13.3148 40.3137,10.4815 38.5,8C 28.5,7.33333 18.5,7.33333 8.5,8C 8,8.5 7.5,9 7,9.5C 6.33333,16.1667 6.33333,22.8333 7,29.5C 7.5,30 8,30.5 8.5,31C 14.1224,30.9572 19.4557,31.7906 24.5,33.5 Z"/></g>
<g><path style="opacity:0.835" fill="#3f3f3f" d="M 26.5,40.5 C 26.1667,38.5 25.8333,36.5 25.5,34.5C 25.5,33.8333 25.1667,33.5 24.5,33.5C 24.1412,31.2341 24.8078,29.4007 26.5,28C 25.1276,25.467 24.1276,22.8003 23.5,20C 24.1667,19 24.8333,18 25.5,17C 32.087,17.7789 38.587,18.2789 45,18.5C 44.5598,26.3319 43.0598,33.9986 40.5,41.5C 35.5622,43.0122 30.8956,42.6788 26.5,40.5 Z M 28.5,20.5 C 32.9761,20.6428 33.6427,22.3094 30.5,25.5C 29.0499,24.1502 28.3832,22.4835 28.5,20.5 Z M 39.5,21.5 C 40.2389,21.369 40.9056,21.5357 41.5,22C 40.5181,25.147 38.5181,27.3137 35.5,28.5C 34.5923,27.21 34.759,25.8767 36,24.5C 37.1451,23.3636 38.3117,22.3636 39.5,21.5 Z M 28.5,31.5 C 32.226,31.1774 35.8927,31.5108 39.5,32.5C 38.7643,34.5405 37.9309,36.5405 37,38.5C 35,39.8333 33,39.8333 31,38.5C 29.8638,36.257 29.0305,33.9237 28.5,31.5 Z"/></g>
</svg>
