<?xml version="1.0" encoding="UTF-8"?>
<!DOCTYPE svg PUBLIC "-//W3C//DTD SVG 1.1//EN" "http://www.w3.org/Graphics/SVG/1.1/DTD/svg11.dtd">
<svg xmlns="http://www.w3.org/2000/svg" version="1.1" width="48px" height="48px" style="shape-rendering:geometricPrecision; text-rendering:geometricPrecision; image-rendering:optimizeQuality; fill-rule:evenodd; clip-rule:evenodd" xmlns:xlink="http://www.w3.org/1999/xlink">
<g><path style="opacity:0.793" fill="#3f3f3f" d="M 21.5,5.5 C 26.5,5.83333 29.1667,8.5 29.5,13.5C 28.1779,13.67 27.0113,13.3366 26,12.5C 25.5065,14.1341 25.3398,15.8008 25.5,17.5C 24.1667,17.5 22.8333,17.5 21.5,17.5C 21.6602,15.8008 21.4935,14.1341 21,12.5C 19.9887,13.3366 18.8221,13.67 17.5,13.5C 17.3433,12.1266 17.51,10.7932 18,9.5C 19.3756,8.29493 20.5423,6.9616 21.5,5.5 Z"/></g>
<g><path style="opacity:0.687" fill="#3f3f3f" d="M 21.5,20.5 C 22.8333,20.5 24.1667,20.5 25.5,20.5C 25.5,22.5 25.5,24.5 25.5,26.5C 24.1667,26.5 22.8333,26.5 21.5,26.5C 21.5,24.5 21.5,22.5 21.5,20.5 Z"/></g>
<g><path style="opacity:0.687" fill="#343434" d="M 8.5,25.5 C 12.8333,25.1667 14.8333,27.1667 14.5,31.5C 10.1667,31.8333 8.16667,29.8333 8.5,25.5 Z"/></g>
<g><path style="opacity:0.687" fill="#343434" d="M 34.5,25.5 C 35.8333,25.5 37.1667,25.5 38.5,25.5C 38.8333,29.8333 36.8333,31.8333 32.5,31.5C 32.2525,29.1417 32.9192,27.1417 34.5,25.5 Z"/></g>
<g><path style="opacity:0.786" fill="#3f3f3f" d="M 18.5,29.5 C 28.79,27.2832 34.1233,31.2832 34.5,41.5C 33.1779,41.67 32.0113,41.3366 31,40.5C 29.1344,33.6531 24.9677,31.8197 18.5,35C 17.283,36.6477 16.4497,38.481 16,40.5C 14.9887,41.3366 13.8221,41.67 12.5,41.5C 11.8709,36.0911 13.8709,32.0911 18.5,29.5 Z"/></g>
<g><path style="opacity:0.882" fill="#3c3c3c" d="M 3.5,38.5 C 5.5,38.5 7.5,38.5 9.5,38.5C 9.5,39.5 9.5,40.5 9.5,41.5C 7.4727,41.6621 5.4727,41.4955 3.5,41C 2.40191,40.2303 2.40191,39.397 3.5,38.5 Z"/></g>
<g><path style="opacity:0.882" fill="#3c3c3c" d="M 37.5,38.5 C 39.5,38.5 41.5,38.5 43.5,38.5C 43.5,39.5 43.5,40.5 43.5,41.5C 41.4727,41.6621 39.4727,41.4955 37.5,41C 36.4019,40.2303 36.4019,39.397 37.5,38.5 Z"/></g>
</svg>
