<?xml version="1.0" encoding="UTF-8"?>
<!DOCTYPE svg PUBLIC "-//W3C//DTD SVG 1.1//EN" "http://www.w3.org/Graphics/SVG/1.1/DTD/svg11.dtd">
<svg xmlns="http://www.w3.org/2000/svg" version="1.1" width="48px" height="48px" style="shape-rendering:geometricPrecision; text-rendering:geometricPrecision; image-rendering:optimizeQuality; fill-rule:evenodd; clip-rule:evenodd" xmlns:xlink="http://www.w3.org/1999/xlink">
<g><path style="opacity:0.784" fill="#3e3e3e" d="M 16.5,3.5 C 19.8333,3.5 23.1667,3.5 26.5,3.5C 26.5,4.83333 26.5,6.16667 26.5,7.5C 12.0331,7.13557 5.86647,14.1356 8,28.5C 12.8253,39.0564 20.6587,42.0564 31.5,37.5C 32.4519,39.0453 32.7852,40.712 32.5,42.5C 11.343,46.5073 1.84295,37.8406 4,16.5C 6.35314,10.3154 10.5198,5.98203 16.5,3.5 Z"/></g>
<g><path style="opacity:0.925" fill="#404040" d="M 28.5,3.5 C 29.5,3.5 30.5,3.5 31.5,3.5C 31.0761,7.70324 31.5761,11.7032 33,15.5C 34.4239,11.7032 34.9239,7.70324 34.5,3.5C 35.5,3.5 36.5,3.5 37.5,3.5C 37.0761,7.70324 37.5761,11.7032 39,15.5C 40.4239,11.7032 40.9239,7.70324 40.5,3.5C 41.5,3.5 42.5,3.5 43.5,3.5C 43.6662,9.50924 43.4995,15.5092 43,21.5C 41.6218,23.2134 39.9552,24.5467 38,25.5C 37.5005,31.4908 37.3338,37.4908 37.5,43.5C 36.5,43.5 35.5,43.5 34.5,43.5C 34.6662,37.4908 34.4995,31.4908 34,25.5C 32.0448,24.5467 30.3782,23.2134 29,21.5C 28.5005,15.5092 28.3338,9.50924 28.5,3.5 Z M 32.5,19.5 C 34.6282,18.3709 36.9615,18.2042 39.5,19C 37.3262,22.1211 34.9928,22.2877 32.5,19.5 Z"/></g>
<g><path style="opacity:0.912" fill="#383838" d="M 22.5,11.5 C 23.5,11.5 24.5,11.5 25.5,11.5C 25.6659,16.5111 25.4993,21.5111 25,26.5C 23.2845,29.3974 20.7845,30.7307 17.5,30.5C 17.4457,27.033 18.9457,24.3663 22,22.5C 22.4986,18.8484 22.6653,15.1817 22.5,11.5 Z"/></g>
</svg>
